<?xml version="1.0" ?><svg height="512px" version="1.1" viewBox="0 0 512 512" width="512px" xmlns="http://www.w3.org/2000/svg" xmlns:xlink="http://www.w3.org/1999/xlink"><title/><desc/><defs/><g fill="none" fill-rule="evenodd" id="SVG" stroke="none" stroke-width="1"><g id="Cupcake"><g id="11" transform="translate(19.000000, 0.000000)"><path d="M378.47374,496.51688 L94.3217424,496.51688 C75.9524563,496.51688 60.0054936,483.879338 55.8168926,466.003482 L12.6103804,281.56937 L460.176691,281.56937 L416.97859,466.003482 C412.789989,483.879338 396.843026,496.51688 378.47374,496.51688" fill="#F8E6C4" id="Fill-1"/><path d="M409.977402,212.086436 L410.086743,212.061211 L409.371821,211.808965 L409.371821,211.800556 C409.590503,211.893047 409.868061,211.968721 410.086743,212.061211 C409.968991,210.833612 409.994224,209.765769 409.826007,208.487721 C394.324819,92.4375911 315.010548,109.565117 261.113851,90.6886832 C207.225565,71.8122491 246.638786,19.7317893 246.638786,19.7317893 C153.875574,-4.03822358 82.5431946,107.816209 82.5431946,107.816209 C18.208639,135.78192 60.1703462,208.487721 60.1703462,208.487721 C31.0856431,231.744833 26.2241745,258.382046 30.4295972,281.571893 L100.088218,281.571893 L158.91367,281.571893 L159.006189,281.571893 L197.199838,281.571893 L430.05409,281.571893 C439.634042,240.077371 432.997886,222.083799 409.977402,212.086436" fill="#EE64A4" id="Fill-3"/><path d="M359.027024,274.865503 C358.850397,277.228211 358.917683,279.414346 359.052257,281.575256 L430.056613,281.575256 C439.720674,239.702364 432.899479,221.750834 409.365934,211.80392 C409.593026,211.89641 409.870584,211.963676 410.089266,212.064574 C409.963104,210.836975 409.996747,209.760724 409.82853,208.491085 C394.327342,92.4409544 315.013071,109.56848 261.116374,90.6920465 L261.116374,90.6920465 L261.107964,90.6920465 C261.107964,90.6920465 365.974383,184.216579 359.027024,274.865503" fill="#010202" id="Fill-5" opacity="0.3"/><path d="M271.378447,496.51688 L378.47374,496.51688 C396.843026,496.51688 412.789989,483.879338 416.97859,466.003482 L460.176691,281.56937 L359.053098,281.56937 C359.053098,281.56937 360.609104,441.367423 271.378447,496.51688" fill="#010202" id="Fill-7" opacity="0.3"/><path d="M404.690345,463.123669 C401.822246,475.357616 391.047954,483.908767 378.47374,483.908767 L364.604256,483.908767 L387.380825,294.185891 L444.263372,294.185891 L404.690345,463.123669 Z M339.186681,483.908767 L288.015099,483.908767 L295.904472,294.185891 L361.963251,294.185891 L339.186681,483.908767 Z M262.748919,483.908767 L210.038152,483.908767 L202.140368,294.185891 L270.646703,294.185891 L262.748919,483.908767 Z M133.60039,483.908767 L110.823821,294.185891 L176.8826,294.185891 L184.780384,483.908767 L133.60039,483.908767 Z M94.3217424,483.908767 C81.7475287,483.908767 70.964825,475.357616 68.0967268,463.123669 L28.5236996,294.185891 L85.4146572,294.185891 L108.191226,483.908767 L94.3217424,483.908767 Z M59.4083236,226.12983 C59.8709201,226.592282 60.4344467,227.138815 60.9306866,227.626491 C61.3259963,228.013269 61.7128952,228.400047 62.1334374,228.803641 C63.134328,229.787402 64.2193271,230.821612 65.3547912,231.897863 C65.8089768,232.318273 66.2463408,232.738684 66.7173481,233.175911 C67.9369207,234.311019 69.2321909,235.496577 70.586337,236.715768 C71.074166,237.152995 71.5451733,237.581813 72.0498241,238.035857 C73.4880786,239.313905 75.0104416,240.633994 76.5832697,241.987716 C77.1047421,242.433351 77.6009819,242.86217 78.1308652,243.316213 C79.7962126,244.728793 81.5540792,246.183413 83.3792327,247.663259 C83.9007051,248.092077 84.4137666,248.512488 84.9520607,248.949715 C86.8781443,250.505234 88.8967472,252.085978 90.9826368,253.691946 C91.4956984,254.087132 91.9835274,254.47391 92.5049998,254.869096 C94.7086413,256.550738 97.0132129,258.257605 99.3850713,259.981288 C99.8560786,260.326025 100.310264,260.662353 100.789682,261.015498 C103.312936,262.831672 105.945531,264.664662 108.653823,266.514468 C109.032311,266.775123 109.402388,267.035777 109.789287,267.296432 C110.605139,267.851374 111.362115,268.397907 112.203199,268.952849 L41.7455485,268.952849 C41.3081845,252.893166 47.1369003,238.750555 59.4083236,226.12983 L59.4083236,226.12983 Z M61.5783217,145.057858 C64.715567,135.623845 71.1582744,128.216211 81.1755912,122.557485 C81.621366,122.876997 82.218536,123.288999 82.706365,123.633736 C83.25307,124.020514 83.7829532,124.390475 84.3885341,124.810886 C85.5996958,125.660115 86.9538419,126.57661 88.3920965,127.543554 C89.0817858,128.006006 89.7041883,128.426416 90.4359319,128.914093 C92.3788371,130.200549 94.506781,131.571087 96.7945309,133.0173 C97.1393756,133.227505 97.4253443,133.420894 97.7785998,133.639507 C100.428016,135.304333 103.329758,137.061649 106.416538,138.886231 C107.274444,139.390724 108.22487,139.928849 109.116419,140.44175 C111.437813,141.795472 113.826493,143.157602 116.366568,144.570182 C117.628195,145.276472 118.948697,145.982761 120.260789,146.697459 C122.666291,148.000732 125.13908,149.312413 127.72962,150.657727 C129.209929,151.431282 130.707059,152.196429 132.254655,152.978393 C134.954536,154.340523 137.763758,155.711062 140.640267,157.098416 C142.213096,157.855155 143.75228,158.603486 145.375573,159.368633 C148.765144,160.949377 152.297699,162.538529 155.905952,164.127681 C157.175989,164.682623 158.370329,165.237565 159.665599,165.800915 C164.636409,167.936601 169.792257,170.072286 175.166787,172.182747 C176.209732,172.586341 177.328375,172.981527 178.388141,173.39353 C182.75337,175.075172 187.211118,176.739998 191.837083,178.371191 C193.779988,179.060664 195.79018,179.724913 197.78355,180.405978 C201.703004,181.742883 205.681334,183.062972 209.785827,184.349429 C212.081987,185.072535 214.411792,185.778825 216.758417,186.485114 C220.812445,187.704305 224.950581,188.881455 229.164414,190.033379 C231.595148,190.706036 234.017472,191.370285 236.498671,192.017717 C241.06576,193.203275 245.750601,194.321567 250.485907,195.423043 C252.740014,195.944352 254.935244,196.490886 257.222994,196.995378 C264.288104,198.542489 271.504609,200.005518 278.948207,201.325607 C298.124935,204.739341 315.274648,207.211355 330.834712,209.363857 C334.047655,209.809492 337.28583,210.263535 340.355789,210.683946 C340.448308,210.692354 340.532417,210.709171 340.633347,210.717579 C344.922878,211.306154 349.002138,211.869504 352.980468,212.424446 C354.157986,212.59261 355.29345,212.760774 356.437325,212.92053 C359.717555,213.39139 362.837978,213.853842 365.891115,214.324701 C366.950882,214.492866 368.061113,214.652622 369.104058,214.820786 C372.577737,215.375728 375.841145,215.939078 378.986801,216.527653 C380.298893,216.771491 381.526877,217.023737 382.780093,217.275984 C384.73982,217.67117 386.615438,218.083172 388.432181,218.503582 C389.702218,218.79787 390.980667,219.092157 392.183418,219.403261 C394.782369,220.06751 397.255157,220.765391 399.509264,221.52213 C400.173721,221.740744 400.737247,222.001398 401.376472,222.22842 C408.836891,224.95268 414.329173,228.29074 417.432775,232.772317 C422.193314,239.683866 422.975522,251.304014 419.787812,268.952849 L162.020636,268.952849 C145.224178,260.334433 130.631362,251.169483 118.284241,242.44176 C117.989861,242.231554 117.687071,242.021349 117.392691,241.811144 C115.306801,240.331299 113.313431,238.859862 111.362115,237.413649 C110.874286,237.043688 110.369635,236.682135 109.890217,236.320582 C108.090296,234.958452 106.357662,233.629954 104.675493,232.309865 C104.111966,231.872638 103.54844,231.435411 103.001735,230.998184 C101.428907,229.745361 99.9065437,228.517762 98.4430566,227.315388 C97.8711191,226.852936 97.3160033,226.390484 96.7608875,225.928033 C95.3815089,224.776108 94.0357737,223.640999 92.7573252,222.547932 C92.2106202,222.077072 91.6891478,221.614621 91.1592646,221.152169 C89.9565137,220.109551 88.7789953,219.075341 87.6771746,218.083172 C87.1472914,217.612312 86.6678732,217.166677 86.1632225,216.704225 C85.1455102,215.779322 84.119387,214.846011 83.1941941,213.979965 C82.7400084,213.551146 82.3362878,213.164368 81.8989239,212.752366 C80.1662898,211.095948 78.6102834,209.58247 77.2477264,208.22034 C76.9281143,207.900828 76.5412154,207.530867 76.2468359,207.219763 C75.8515261,206.832985 75.5571465,206.521882 75.203891,206.15192 C74.6319536,205.571754 74.0431944,204.966362 73.5637762,204.46187 C73.3114508,204.192807 73.1180014,203.982602 72.8824977,203.738764 C72.4114904,203.234271 71.9320722,202.72137 71.5704059,202.326184 C71.4442432,202.183245 71.3349022,202.073938 71.2255612,201.939406 C70.964825,201.661935 70.7545539,201.426506 70.5695153,201.224709 C67.650952,195.666881 54.00015,167.818886 61.5783217,145.057858 L61.5783217,145.057858 Z M226.63275,29.2431578 C221.636708,40.3924457 217.557448,55.493593 222.023607,70.2920446 C226.514998,85.1829865 238.264949,96.0548035 256.945436,102.596392 C269.679456,107.052744 283.565762,109.617248 296.989471,112.09767 C339.733386,119.992981 380.282072,127.484697 394.538454,193.968422 C393.386169,193.69936 392.090898,193.472338 390.904969,193.211683 C390.602179,193.152826 390.282567,193.08556 389.988187,193.026703 C386.043501,192.19429 381.86331,191.403918 377.472849,190.655587 C376.766338,190.537872 376.051416,190.411749 375.336495,190.294034 C371.20677,189.621377 366.866773,188.94872 362.324917,188.29288 C361.492243,188.166757 360.676391,188.040633 359.826896,187.922918 C354.729924,187.191404 349.42268,186.45989 343.779003,185.686334 C341.550129,185.383639 339.178271,185.04731 336.873699,184.736206 C320.876271,182.533255 303.15462,180.010792 283.363901,176.49616 C276.450186,175.268561 269.746743,173.898022 263.15264,172.45181 C261.134037,172.014583 259.165899,171.535315 257.172529,171.072863 C252.588618,170.013429 248.071994,168.920361 243.656301,167.776845 C241.562,167.230311 239.484521,166.683777 237.432275,166.120427 C232.940884,164.901236 228.550422,163.631596 224.24407,162.328324 C222.662831,161.857464 221.031127,161.395012 219.47512,160.907336 C213.713691,159.107979 208.103658,157.266581 202.695484,155.366325 C201.904865,155.088854 201.173121,154.802975 200.390912,154.525504 C195.781769,152.885903 191.298789,151.221077 186.958792,149.531026 C185.327088,148.900411 183.74585,148.261387 182.1562,147.622362 C178.690932,146.235008 175.301361,144.847653 172.01272,143.443482 C170.490357,142.796049 168.951173,142.140209 167.462453,141.492777 C163.921487,139.937257 160.498273,138.390147 157.1844,136.843036 C156.242385,136.405809 155.249906,135.968582 154.333124,135.531355 C150.152933,133.547017 146.166193,131.587904 142.372902,129.654015 C141.506584,129.216788 140.715965,128.78797 139.86647,128.350743 C136.973139,126.854081 134.172327,125.374236 131.522911,123.928023 C130.41268,123.322632 129.336091,122.734057 128.267914,122.137074 C125.963342,120.859026 123.75129,119.606203 121.648579,118.387012 C120.731797,117.857295 119.789782,117.310761 118.915054,116.79786 C116.425444,115.334832 114.078818,113.913844 111.90882,112.56853 C111.631262,112.400366 111.31165,112.206977 111.034092,112.038813 C108.544482,110.491702 106.290375,109.037082 104.24654,107.691768 C103.775533,107.389072 103.380223,107.120009 102.934448,106.825722 C101.899914,106.136249 100.991543,105.522449 100.091582,104.900242 C117.619784,81.7188035 166.655012,25.2912985 226.63275,29.2431578 L226.63275,29.2431578 Z M470.059434,273.74553 C467.662343,270.718574 464.028858,268.961257 460.176691,268.961257 L445.272673,268.961257 C448.695887,246.418843 446.458602,230.418018 438.190741,218.444725 C434.044195,212.432854 428.535091,207.833562 421.907345,204.058276 C407.861233,106.985478 348.993727,96.0548035 301.573381,87.2934475 C288.511339,84.8886991 276.181039,82.6016657 265.288995,78.7843378 C254.666097,75.0679085 248.240211,69.7791437 246.196376,63.060983 C242.344209,50.4402581 252.487688,32.9764035 256.701522,27.3429021 C259.250008,23.9712094 259.948108,19.5568985 258.551908,15.5629982 C257.164118,11.5859144 253.858656,8.55895836 249.770985,7.50793196 C157.150757,-16.1948152 86.7519816,79.229973 73.9422642,97.9886921 C55.5393347,106.892988 43.2595006,120.04343 37.5905909,137.229813 C28.9694744,163.337309 38.398032,191.319836 44.6472901,205.470855 C25.7481207,223.464427 16.3027414,245.081938 16.6896403,268.961257 L12.6187912,268.961257 C8.76662405,268.961257 5.12472804,270.718574 2.72763713,273.74553 C0.338957065,276.755669 -0.544181691,280.707528 0.33054622,284.449182 L43.5286477,468.874886 C49.0882164,492.577633 69.9639344,509.133401 94.3217424,509.133401 L378.47374,509.133401 C402.823137,509.133401 423.707266,492.577633 429.266835,468.874886 L472.464936,284.449182 C473.331253,280.707528 472.456525,276.755669 470.059434,273.74553 L470.059434,273.74553 Z" fill="#2E2E30" id="Fill-9"/></g></g></g></svg>