<?xml version="1.0" ?><svg height="512px" version="1.1" viewBox="0 0 512 512" width="512px" xmlns="http://www.w3.org/2000/svg" xmlns:xlink="http://www.w3.org/1999/xlink"><title/><desc/><defs/><g fill="none" fill-rule="evenodd" id="SVG" stroke="none" stroke-width="1"><g id="Donut"><g id="6"><path d="M253.750451,326.861298 C214.090768,326.861298 181.948546,294.935684 181.948546,255.561298 C181.948546,216.178842 214.090768,184.253228 253.750451,184.253228 C293.410133,184.253228 325.552356,216.178842 325.552356,255.561298 C325.552356,294.935684 293.410133,326.861298 253.750451,326.861298 M253.750451,15.6834035 C120.337879,15.6834035 12.1921016,123.081298 12.1921016,255.561298 C12.1921016,388.041298 120.337879,495.431123 253.750451,495.431123 C387.163022,495.431123 495.3088,388.041298 495.3088,255.561298 C495.3088,123.081298 387.163022,15.6834035 253.750451,15.6834035" fill="#E4B382" id="Fill-1"/><path d="M253.750451,326.861298 C214.090768,326.861298 181.948546,294.935684 181.948546,255.561298 C181.948546,216.178842 214.090768,184.253228 253.750451,184.253228 C293.410133,184.253228 325.552356,216.178842 325.552356,255.561298 C325.552356,294.935684 293.410133,326.861298 253.750451,326.861298 M253.750451,15.6834035 C120.337879,15.6834035 12.1921016,123.081298 12.1921016,255.561298 C12.1921016,318.734632 36.8249905,376.17007 77.021054,419.006561 C77.2811175,417.327965 77.500546,415.625158 77.500546,413.86586 L77.500546,405.424456 L77.500546,394.634632 C77.500546,375.887614 92.8117841,360.683404 111.690768,360.683404 C130.569752,360.683404 145.88099,375.887614 145.88099,394.634632 L145.88099,405.424456 L145.88099,413.86586 C145.88099,432.620947 161.184102,447.817088 180.071213,447.817088 C198.950197,447.817088 214.253308,432.620947 214.253308,413.86586 L214.253308,404.286561 C214.253308,385.531474 228.759975,370.335333 247.647086,370.335333 C266.52607,370.335333 281.829181,385.531474 281.829181,404.286561 L281.829181,413.86586 C281.829181,432.620947 297.140419,447.817088 316.019403,447.817088 C334.906514,447.817088 350.209625,432.620947 350.209625,413.86586 L350.209625,405.424456 L350.209625,394.634632 C350.209625,375.887614 365.512737,360.683404 384.399848,360.683404 C403.278832,360.683404 418.59007,375.887614 418.59007,394.634632 L418.59007,405.424456 L418.59007,413.86586 C418.59007,418.877439 419.744102,423.598491 421.702705,427.875684 C467.06753,384.272526 495.3088,323.205509 495.3088,255.561298 C495.3088,123.081298 387.163022,15.6834035 253.750451,15.6834035" fill="#EE64A4" id="Fill-3"/><path d="M451.181714,117.42814 C458.699175,140.613754 462.803302,165.324632 462.803302,190.99586 C462.803302,323.47586 354.649397,430.873754 221.244952,430.873754 C139.641905,430.873754 67.5474286,390.652 23.816127,329.133053 C55.0968889,425.60393 146.192254,495.435158 253.752889,495.435158 C387.157333,495.435158 495.311238,388.037263 495.311238,255.557263 C495.311238,204.109895 478.951619,156.487789 451.181714,117.42814" fill="#010202" id="Fill-5" opacity="0.3"/><path d="M89.6390095,414.458211 C89.6390095,414.256456 89.6877714,414.070842 89.6877714,413.877158 L89.6877714,394.63786 C89.6877714,382.597158 99.5620571,372.791895 111.687517,372.791895 C123.821105,372.791895 133.687263,382.597158 133.687263,394.63786 L133.687263,413.877158 C133.687263,439.26593 154.50047,459.925579 180.067962,459.925579 C205.643581,459.925579 226.440533,439.26593 226.440533,413.877158 L226.440533,404.281719 C226.440533,392.031193 235.754057,382.435754 247.643835,382.435754 C259.769295,382.435754 269.643581,392.241018 269.643581,404.281719 L269.643581,413.877158 C269.643581,439.26593 290.44866,459.925579 316.024279,459.925579 C341.591771,459.925579 362.396851,439.26593 362.396851,413.877158 L362.396851,394.63786 C362.396851,382.597158 372.271137,372.791895 384.396597,372.791895 C396.522057,372.791895 406.396343,382.597158 406.396343,394.63786 L406.396343,413.877158 C406.396343,417.387684 406.843327,420.86593 407.664152,424.287684 C366.939835,460.958561 312.927898,483.329088 253.755327,483.329088 C189.47901,483.329088 131.322311,456.899263 89.6390095,414.458211 M253.755327,27.7918947 C380.227454,27.7918947 483.1232,129.968386 483.1232,255.556456 C483.1232,261.520316 482.806248,267.427684 482.359263,273.310842 C482.26174,274.497158 482.188597,275.691544 482.082946,276.87786 C481.5872,282.204175 480.880152,287.49014 480.018692,292.735754 C479.717994,294.495053 479.401041,296.254351 479.059708,298.005579 C478.190121,302.66207 477.182375,307.27014 476.020216,311.83786 C475.410692,314.202421 474.719898,316.526632 474.037232,318.858912 C473.200152,321.739965 472.298057,324.596807 471.3472,327.437509 C470.022502,331.383825 468.592152,335.281719 467.056152,339.139263 C466.162184,341.374702 465.260089,343.61014 464.301105,345.813298 C462.927644,348.968737 461.489168,352.083825 459.977549,355.166632 C458.457803,358.257509 456.881168,361.332246 455.215137,364.358561 C453.744152,367.029789 452.200025,369.668737 450.62339,372.275404 C449.103644,374.785228 447.52701,377.254702 445.90974,379.708035 C443.910502,382.734351 441.854375,385.712246 439.716978,388.641719 C437.685232,391.434 435.58847,394.18593 433.418565,396.897509 C432.532724,398.003123 431.687517,399.141018 430.777295,400.230491 L430.777295,394.63786 C430.777295,369.241018 409.972216,348.581368 384.396597,348.581368 C358.829105,348.581368 338.015898,369.241018 338.015898,394.63786 L338.015898,413.877158 C338.015898,425.91786 328.14974,435.715053 316.024279,435.715053 C303.898819,435.715053 294.024533,425.91786 294.024533,413.877158 L294.024533,404.281719 C294.024533,378.892947 273.211327,358.225228 247.643835,358.225228 C222.08447,358.225228 202.059581,378.457158 202.059581,404.281719 L202.059581,413.877158 C202.059581,425.91786 192.201549,435.715053 180.067962,435.715053 C167.942502,435.715053 158.068216,425.91786 158.068216,413.877158 L158.068216,394.63786 C158.068216,369.241018 137.263137,348.581368 111.687517,348.581368 C88.9888508,348.581368 70.0611048,364.858912 66.0870095,386.277158 C65.5912635,385.575053 65.0711365,384.889088 64.5835175,384.178912 C62.0966603,380.579614 59.691073,376.931895 57.4236444,373.211544 C56.4809143,371.66207 55.595073,370.064175 54.6848508,368.490491 C52.9944381,365.561018 51.3690413,362.591193 49.8086603,359.589088 C49.0203429,358.071895 48.2076444,356.562772 47.4518349,355.021368 C45.4200889,350.881368 43.5265016,346.684877 41.762946,342.431895 C41.1615492,340.995404 40.6007873,339.542772 40.0318984,338.09014 C38.5202794,334.240667 37.0980571,330.350842 35.8058667,326.420667 C35.5132952,325.532947 35.1800889,324.653298 34.8956444,323.749439 C33.3921524,319.004175 32.0837079,314.194351 30.8971683,309.344175 C30.6045968,308.133649 30.3201524,306.906982 30.0438349,305.680316 C28.9466921,300.846281 27.963327,295.988035 27.1831365,291.073298 C27.1506286,290.863474 27.1099937,290.661719 27.0774857,290.451895 C26.2810413,285.343474 25.7202794,280.186632 25.2732952,275.005579 C25.1676444,273.770842 25.0782476,272.528035 24.9888508,271.285228 C24.6312635,266.071895 24.379327,260.826281 24.379327,255.556456 C24.379327,129.968386 127.275073,27.7918947 253.755327,27.7918947 M433.564851,433.164877 C481.23774,385.615404 507.504152,322.764877 507.504152,255.556456 C507.504152,116.620316 393.669486,3.58136842 253.755327,3.58136842 C113.833041,3.58136842 -0.00162539683,116.620316 -0.00162539683,255.556456 C-0.00162539683,259.728737 0.112152381,263.876807 0.315326984,268.016807 C0.388469841,269.477509 0.534755556,270.92207 0.632279365,272.382772 C0.802946032,275.03786 0.981739683,277.692947 1.24180317,280.331895 C1.41246984,282.050842 1.64815238,283.753649 1.85132698,285.464526 C2.13577143,287.829088 2.4039619,290.185579 2.75342222,292.534 C3.01348571,294.293298 3.3304381,296.028386 3.63113651,297.779614 C4.02123175,300.071544 4.41945397,302.371544 4.87456508,304.647333 C5.20777143,306.334 5.58973968,308.004526 5.95545397,309.683123 C6.47558095,312.015404 7.00383492,314.347684 7.58897778,316.663825 C7.97907302,318.213298 8.39354921,319.754702 8.81615238,321.288035 C9.48256508,323.741368 10.1733587,326.186632 10.9129143,328.615754 C11.3273905,329.963474 11.7581206,331.295053 12.1888508,332.634702 C13.0340571,335.249439 13.9198984,337.856105 14.8545016,340.446632 C15.2608508,341.560316 15.6672,342.674 16.0898032,343.779614 C17.1463111,346.596105 18.2597079,349.388386 19.4218667,352.164526 C19.779454,353.003825 20.1289143,353.851193 20.4946286,354.690491 C21.803073,357.716807 23.1684063,360.710842 24.5987556,363.688737 C24.875073,364.261719 25.1513905,364.842772 25.4277079,365.415754 C26.9962159,368.627684 28.6378667,371.799263 30.3526603,374.946632 C30.531454,375.277509 30.7021206,375.608386 30.8890413,375.939263 C32.7338667,379.296456 34.6599619,382.621368 36.6592,385.89786 C36.7242159,386.010842 36.7973587,386.123825 36.8623746,386.236807 C45.7858032,400.795404 56.1883429,414.563123 68.1025016,427.265579 C68.3219302,427.499614 68.5982476,427.636807 68.8339302,427.846632 C115.15774,476.848737 180.896914,507.539614 253.755327,507.539614 C321.835073,507.539614 383.697676,480.722421 429.314438,437.232246 C429.598883,437.006281 429.915835,436.828737 430.184025,436.578561 C431.102375,435.698912 431.955708,434.770842 432.857803,433.875053 C433.093486,433.641018 433.329168,433.398912 433.564851,433.164877" fill="#2E2E30" id="Fill-7"/><path d="M253.753702,196.360912 C286.627352,196.360912 313.36513,222.91986 313.36513,255.555649 C313.36513,288.199509 286.627352,314.750386 253.753702,314.750386 C220.880051,314.750386 194.134146,288.199509 194.134146,255.555649 C194.134146,222.91986 220.880051,196.360912 253.753702,196.360912 M253.753702,338.960912 C300.061257,338.960912 337.746083,301.547579 337.746083,255.555649 C337.746083,209.563719 300.061257,172.150386 253.753702,172.150386 C207.438019,172.150386 169.753194,209.563719 169.753194,255.555649 C169.753194,301.547579 207.438019,338.960912 253.753702,338.960912" fill="#2E2E30" id="Fill-10"/><path d="M177.14306,379.867018 C175.208838,379.867018 173.250235,379.407018 171.421663,378.446667 C165.472711,375.307368 163.229663,367.971579 166.39106,362.072281 L179.938743,336.804561 C183.10014,330.897193 190.503822,328.685965 196.428394,331.809123 C202.369219,334.956491 204.620394,342.284211 201.458997,348.183509 L187.911314,373.451228 C185.725156,377.542807 181.499124,379.867018 177.14306,379.867018" fill="#FEFEFE" id="Fill-12"/><path d="M361.53214,219.933088 C360.386235,219.933088 359.232203,219.771684 358.078171,219.432737 C351.617219,217.544316 347.927568,210.813789 349.83741,204.398 L357.980648,176.943263 C359.890489,170.527474 366.676521,166.887825 373.121219,168.752035 C379.582171,170.648526 383.271822,177.379053 381.361981,183.786772 L373.210616,211.249579 C371.650235,216.519404 366.790298,219.933088 361.53214,219.933088" fill="#FEFEFE" id="Fill-14"/><path d="M316.293283,387.353719 L316.13887,387.353719 C309.409727,387.264947 304.021537,381.785298 304.102806,375.095123 L304.460394,346.470211 C304.54979,339.828456 309.986743,334.510211 316.65087,334.510211 L316.797156,334.510211 C323.534425,334.598982 328.922616,340.086702 328.841346,346.768807 L328.483759,375.401789 C328.394362,382.035474 322.95741,387.353719 316.293283,387.353719" fill="#FEFEFE" id="Fill-16"/><path d="M436.674235,332.084316 C433.065854,332.084316 429.489981,330.502561 427.084394,327.460105 L409.261917,304.952386 C405.092775,299.698702 406.019251,292.088526 411.309917,287.956596 C416.592457,283.816596 424.26433,284.736596 428.417219,289.990281 L446.247822,312.498 C450.408838,317.751684 449.490489,325.36186 444.199822,329.493789 C441.964902,331.245018 439.307378,332.084316 436.674235,332.084316" fill="#FEFEFE" id="Fill-18"/><path d="M385.857016,270.438667 C379.461079,270.438667 374.089143,265.491649 373.699048,259.059719 C373.284571,252.393754 378.404571,246.647789 385.125587,246.244281 L413.903238,244.517263 C420.754286,244.016912 426.40254,249.189895 426.808889,255.86393 C427.223365,262.537965 422.103365,268.267789 415.382349,268.679368 L386.604698,270.414456 C386.352762,270.430596 386.100825,270.438667 385.857016,270.438667" fill="#FEFEFE" id="Fill-20"/><path d="M289.52381,163.288526 C287.589587,163.288526 285.630984,162.828526 283.802413,161.868175 C277.85346,158.728877 275.610413,151.393088 278.77181,145.493789 L292.319492,120.218 C295.480889,114.310632 302.884571,112.075193 308.809143,115.214491 C314.749968,118.36186 317.001143,125.689579 313.839746,131.588877 L300.292063,156.864667 C298.105905,160.956246 293.879873,163.288526 289.52381,163.288526" fill="#FEFEFE" id="Fill-22"/><path d="M437.912787,231.589649 C435.978565,231.589649 434.019962,231.129649 432.19139,230.169298 C426.242438,227.02193 423.99939,219.694211 427.160787,213.786842 L440.70847,188.519123 C443.869867,182.619825 451.273549,180.384386 457.198121,183.523684 C463.138946,186.671053 465.390121,193.998772 462.228724,199.89807 L448.681041,225.17386 C446.494883,229.257368 442.268851,231.589649 437.912787,231.589649" fill="#FEFEFE" id="Fill-24"/><path d="M412.975949,162.098175 C411.041727,162.098175 409.083124,161.638175 407.254552,160.677825 L381.800838,147.224842 C375.86814,144.085544 373.608838,136.757825 376.770235,130.850456 C379.939759,124.943088 387.327187,122.715719 393.259886,125.855018 L418.7136,139.29993 C424.654425,142.439228 426.9056,149.775018 423.744203,155.674316 C421.558044,159.765895 417.332013,162.098175 412.975949,162.098175" fill="#FEFEFE" id="Fill-26"/><path d="M374.237867,325.030982 C372.303644,325.030982 370.345041,324.570982 368.51647,323.610632 L343.070883,310.157649 C337.130057,307.018351 334.878883,299.682561 338.040279,293.783263 C341.209803,287.875895 348.605359,285.656596 354.52993,288.787825 L379.975517,302.240807 C385.916343,305.380105 388.167517,312.715895 385.006121,318.615193 C382.819962,322.706772 378.59393,325.030982 374.237867,325.030982" fill="#FEFEFE" id="Fill-28"/><path d="M337.421003,97.3753684 C333.633829,97.3753684 329.903543,95.6322105 327.522337,92.3476491 L310.658844,69.1297544 C306.725384,63.7065965 307.952559,56.1448421 313.422019,52.230807 C318.858971,48.3167719 326.49021,49.5353684 330.439924,54.9665965 L347.303416,78.1925614 C351.236876,83.6076491 350.009702,91.1774737 344.540241,95.0915088 C342.38659,96.6329123 339.899733,97.3753684 337.421003,97.3753684" fill="#FEFEFE" id="Fill-30"/><path d="M253.881295,111.068842 C252.694756,111.068842 251.500089,110.899368 250.313549,110.536211 C243.876978,108.583228 240.244216,101.820421 242.210946,95.4288421 L250.638629,68.0386667 C252.597232,61.6390175 259.407644,58.0558596 265.86047,60.0007719 C272.297041,61.9537544 275.921676,68.7165614 273.954946,75.1081404 L265.53539,102.498316 C263.926248,107.711649 259.098819,111.068842 253.881295,111.068842" fill="#FEFEFE" id="Fill-32"/><path d="M135.397181,266.403579 C130.139022,266.403579 125.279086,262.989895 123.718705,257.712 L115.56734,230.257263 C113.657498,223.841474 117.347149,217.110947 123.808102,215.222526 C130.244673,213.342175 137.038832,216.989895 138.948673,223.413754 L147.091911,250.876561 C149.001752,257.284281 145.312102,264.014807 138.851149,265.903228 C137.697117,266.242175 136.543086,266.403579 135.397181,266.403579" fill="#FEFEFE" id="Fill-34"/><path d="M129.952102,334.078456 C127.318959,334.078456 124.661435,333.239158 122.418387,331.48793 C117.135848,327.356 116.217498,319.745825 120.378514,314.48407 L138.209117,291.984421 C142.370133,286.746877 150.017625,285.818807 155.324546,289.958807 C160.607086,294.090737 161.533562,301.700912 157.364419,306.962667 L139.541943,329.462316 C137.136356,332.496702 133.560483,334.078456 129.952102,334.078456" fill="#FEFEFE" id="Fill-36"/><path d="M157.118984,206.196842 C150.552381,206.196842 145.131683,201.007719 144.944762,194.446667 L144.083302,165.837895 C143.880127,159.155789 149.170794,153.579298 155.908063,153.377544 C162.490921,153.224211 168.261079,158.437544 168.456127,165.119649 L169.30946,193.736491 C169.512635,200.418596 164.221968,205.995088 157.492825,206.196842 L157.118984,206.196842" fill="#FEFEFE" id="Fill-38"/><path d="M219.476521,160.837614 C215.120457,160.837614 210.894425,158.505333 208.708267,154.421825 L195.160584,129.146035 C191.999187,123.246737 194.250362,115.919018 200.191187,112.771649 C206.115759,109.632351 213.519441,111.859719 216.680838,117.767088 L230.228521,143.034807 C233.389917,148.942175 231.14687,156.269895 225.197917,159.417263 C223.369346,160.377614 221.410743,160.837614 219.476521,160.837614" fill="#FEFEFE" id="Fill-40"/><path d="M80.5717333,225.875158 C76.2156698,225.875158 71.9896381,223.542877 69.8034794,219.451298 L56.2557968,194.175509 C53.0944,188.276211 55.3455746,180.948491 61.2864,177.801123 C67.2028444,174.653754 74.614654,176.897263 77.7760508,182.804632 L91.3237333,208.080421 C94.4851302,213.979719 92.2420825,221.315509 86.2931302,224.454807 C84.4645587,225.415158 82.5059556,225.875158 80.5717333,225.875158" fill="#FEFEFE" id="Fill-42"/><path d="M110.412394,144.740035 C106.05633,144.740035 101.830298,142.407754 99.6441397,138.316175 C96.4827429,132.416877 98.7339175,125.081088 104.674743,121.941789 L130.128457,108.496877 C136.053029,105.349509 143.440457,107.584947 146.618108,113.492316 C149.779505,119.399684 147.520203,126.727404 141.587505,129.866702 L116.13379,143.319684 C114.305219,144.280035 112.346616,144.740035 110.412394,144.740035" fill="#FEFEFE" id="Fill-44"/><path d="M61.0710349,298.834386 C56.7149714,298.834386 52.4889397,296.510175 50.302781,292.418596 C47.1413841,286.519298 49.3925587,279.183509 55.3333841,276.044211 L80.7870984,262.591228 C86.7035429,259.45193 94.1072254,261.679298 97.2767492,267.586667 C100.438146,273.485965 98.1869714,280.821754 92.246146,283.961053 L66.7924317,297.414035 C64.9638603,298.374386 63.0052571,298.834386 61.0710349,298.834386" fill="#FEFEFE" id="Fill-46"/><path d="M167.047721,97.3753684 C164.56899,97.3753684 162.082133,96.6329123 159.928483,95.0915088 C154.459022,91.1774737 153.231848,83.6076491 157.165308,78.1925614 L174.0288,54.9665965 C177.970387,49.5353684 185.601625,48.3167719 191.046705,52.230807 C196.516165,56.1448421 197.74334,63.7065965 193.809879,69.1297544 L176.946387,92.3476491 C174.565181,95.6322105 170.834895,97.3753684 167.047721,97.3753684" fill="#FEFEFE" id="Fill-48"/></g></g></g></svg>